<svg width="17" height="17" viewBox="0 0 17 17" fill="none" xmlns="http://www.w3.org/2000/svg">
<path fill-rule="evenodd" clip-rule="evenodd" d="M13.6945 16.0558C14.3207 16.0558 14.9212 15.8071 15.364 15.3643C15.8068 14.9215 16.0556 14.3209 16.0556 13.6947C16.0556 13.0685 15.8068 12.468 15.364 12.0252C14.9212 11.5824 14.3207 11.3336 13.6945 11.3336C13.0683 11.3336 12.4677 11.5824 12.0249 12.0252C11.5821 12.468 11.3334 13.0685 11.3334 13.6947C11.3334 14.3209 11.5821 14.9215 12.0249 15.3643C12.4677 15.8071 13.0683 16.0558 13.6945 16.0558ZM13.6945 17.0003C14.5712 17.0003 15.4119 16.652 16.0319 16.0321C16.6518 15.4122 17 14.5714 17 13.6947C17 12.818 16.6518 11.9772 16.0319 11.3573C15.4119 10.7374 14.5712 10.3892 13.6945 10.3892C12.8178 10.3892 11.977 10.7374 11.3571 11.3573C10.7372 11.9772 10.3889 12.818 10.3889 13.6947C10.3889 14.5714 10.7372 15.4122 11.3571 16.0321C11.977 16.652 12.8178 17.0003 13.6945 17.0003Z" fill="white"/>
<path fill-rule="evenodd" clip-rule="evenodd" d="M13.6945 12.0418C13.8197 12.0418 13.9398 12.0916 14.0284 12.1801C14.1169 12.2687 14.1667 12.3888 14.1667 12.5141V13.4991L14.5006 13.833C14.5866 13.922 14.6342 14.0413 14.6331 14.1651C14.632 14.2889 14.5824 14.4074 14.4948 14.4949C14.4072 14.5825 14.2888 14.6322 14.165 14.6332C14.0412 14.6343 13.9219 14.5867 13.8328 14.5007L13.2222 13.8901V12.5141C13.2222 12.3888 13.272 12.2687 13.3606 12.1801C13.4491 12.0916 13.5692 12.0418 13.6945 12.0418ZM3.7778 8.02794H2.83336V8.97238H3.7778V8.02794ZM2.83336 7.0835C2.58288 7.0835 2.34266 7.183 2.16554 7.36012C1.98842 7.53724 1.88892 7.77746 1.88892 8.02794V8.97238C1.88892 9.22287 1.98842 9.46309 2.16554 9.64021C2.34266 9.81733 2.58288 9.91683 2.83336 9.91683H3.7778C4.02829 9.91683 4.26851 9.81733 4.44563 9.64021C4.62275 9.46309 4.72225 9.22287 4.72225 8.97238V8.02794C4.72225 7.77746 4.62275 7.53724 4.44563 7.36012C4.26851 7.183 4.02829 7.0835 3.7778 7.0835H2.83336ZM7.55558 8.02794H6.61114V8.97238H7.55558V8.02794ZM6.61114 7.0835C6.36066 7.0835 6.12043 7.183 5.94332 7.36012C5.7662 7.53724 5.66669 7.77746 5.66669 8.02794V8.97238C5.66669 9.22287 5.7662 9.46309 5.94332 9.64021C6.12043 9.81733 6.36066 9.91683 6.61114 9.91683H7.55558C7.80606 9.91683 8.04629 9.81733 8.2234 9.64021C8.40052 9.46309 8.50003 9.22287 8.50003 8.97238V8.02794C8.50003 7.77746 8.40052 7.53724 8.2234 7.36012C8.04629 7.183 7.80606 7.0835 7.55558 7.0835H6.61114ZM11.3334 8.02794H10.3889V8.97238H11.3334V8.02794ZM10.3889 7.0835C10.1384 7.0835 9.89821 7.183 9.72109 7.36012C9.54397 7.53724 9.44447 7.77746 9.44447 8.02794V8.97238C9.44447 9.22287 9.54397 9.46309 9.72109 9.64021C9.89821 9.81733 10.1384 9.91683 10.3889 9.91683H11.3334C11.5838 9.91683 11.8241 9.81733 12.0012 9.64021C12.1783 9.46309 12.2778 9.22287 12.2778 8.97238V8.02794C12.2778 7.77746 12.1783 7.53724 12.0012 7.36012C11.8241 7.183 11.5838 7.0835 11.3334 7.0835H10.3889ZM3.7778 11.8057H2.83336V12.7502H3.7778V11.8057ZM2.83336 10.8613C2.58288 10.8613 2.34266 10.9608 2.16554 11.1379C1.98842 11.315 1.88892 11.5552 1.88892 11.8057V12.7502C1.88892 13.0006 1.98842 13.2409 2.16554 13.418C2.34266 13.5951 2.58288 13.6946 2.83336 13.6946H3.7778C4.02829 13.6946 4.26851 13.5951 4.44563 13.418C4.62275 13.2409 4.72225 13.0006 4.72225 12.7502V11.8057C4.72225 11.5552 4.62275 11.315 4.44563 11.1379C4.26851 10.9608 4.02829 10.8613 3.7778 10.8613H2.83336ZM7.55558 11.8057H6.61114V12.7502H7.55558V11.8057ZM6.61114 10.8613C6.36066 10.8613 6.12043 10.9608 5.94332 11.1379C5.7662 11.315 5.66669 11.5552 5.66669 11.8057V12.7502C5.66669 13.0006 5.7662 13.2409 5.94332 13.418C6.12043 13.5951 6.36066 13.6946 6.61114 13.6946H7.55558C7.80606 13.6946 8.04629 13.5951 8.2234 13.418C8.40052 13.2409 8.50003 13.0006 8.50003 12.7502V11.8057C8.50003 11.5552 8.40052 11.315 8.2234 11.1379C8.04629 10.9608 7.80606 10.8613 7.55558 10.8613H6.61114Z" fill="white"/>
<path fill-rule="evenodd" clip-rule="evenodd" d="M0.944444 2.83317C0.944444 2.70793 0.994196 2.58782 1.08276 2.49926C1.17131 2.4107 1.29143 2.36095 1.41667 2.36095H3.77778V1.4165H1.41667C1.04094 1.4165 0.680609 1.56576 0.414932 1.83144C0.149256 2.09711 0 2.45745 0 2.83317V14.1665C0 14.5422 0.149256 14.9026 0.414932 15.1682C0.680609 15.4339 1.04094 15.5832 1.41667 15.5832H10.9815C10.7801 15.2947 10.6263 14.9759 10.5258 14.6387H1.41667C1.29143 14.6387 1.17131 14.589 1.08276 14.5004C0.994196 14.4119 0.944444 14.2917 0.944444 14.1665V2.83317ZM13.2222 10.4218C13.5354 10.377 13.8534 10.377 14.1667 10.4218V2.83317C14.1667 2.45745 14.0174 2.09711 13.7517 1.83144C13.4861 1.56576 13.1257 1.4165 12.75 1.4165H11.3333V2.36095H12.75C12.8752 2.36095 12.9954 2.4107 13.0839 2.49926C13.1725 2.58782 13.2222 2.70793 13.2222 2.83317V10.4218ZM4.72222 2.36095H9.71031V1.4165H4.72222V2.36095Z" fill="white"/>
<path fill-rule="evenodd" clip-rule="evenodd" d="M10.3888 1.4165H4.72217V2.83317C4.72217 2.95841 4.67242 3.07852 4.58386 3.16708C4.4953 3.25564 4.37519 3.30539 4.24995 3.30539C4.1247 3.30539 4.00459 3.25564 3.91603 3.16708C3.82748 3.07852 3.77772 2.95841 3.77772 2.83317V1.4165H1.41661C1.16613 1.4165 0.925907 1.51601 0.748789 1.69313C0.571672 1.87024 0.472168 2.11047 0.472168 2.36095V4.72206C0.472168 4.97254 0.571672 5.21276 0.748789 5.38988C0.925907 5.567 1.16613 5.6665 1.41661 5.6665H12.7499C13.0004 5.6665 13.2407 5.567 13.4178 5.38988C13.5949 5.21276 13.6944 4.97254 13.6944 4.72206V2.36095C13.6944 2.11047 13.5949 1.87024 13.4178 1.69313C13.2407 1.51601 13.0004 1.4165 12.7499 1.4165H11.3333V2.83317C11.3333 2.95841 11.2835 3.07852 11.195 3.16708C11.1064 3.25564 10.9863 3.30539 10.8611 3.30539C10.7358 3.30539 10.6157 3.25564 10.5271 3.16708C10.4386 3.07852 10.3888 2.95841 10.3888 2.83317V1.4165Z" fill="white"/>
<path fill-rule="evenodd" clip-rule="evenodd" d="M14.1666 5.66661H0.944336V4.72217H14.1666V5.66661Z" fill="white"/>
<path d="M2.83325 0.472222C2.83325 0.346981 2.883 0.22687 2.97156 0.138311C3.06012 0.0497519 3.18023 0 3.30547 0C3.43072 0 3.55083 0.0497519 3.63939 0.138311C3.72794 0.22687 3.7777 0.346981 3.7777 0.472222V2.36111C3.7777 2.48635 3.72794 2.60646 3.63939 2.69502C3.55083 2.78358 3.43072 2.83333 3.30547 2.83333C3.18023 2.83333 3.06012 2.78358 2.97156 2.69502C2.883 2.60646 2.83325 2.48635 2.83325 2.36111V0.472222ZM9.44436 0.472222C9.44436 0.346981 9.49411 0.22687 9.58267 0.138311C9.67123 0.0497519 9.79134 0 9.91659 0C10.0418 0 10.1619 0.0497519 10.2505 0.138311C10.3391 0.22687 10.3888 0.346981 10.3888 0.472222V2.36111C10.3888 2.48635 10.3391 2.60646 10.2505 2.69502C10.1619 2.78358 10.0418 2.83333 9.91659 2.83333C9.79134 2.83333 9.67123 2.78358 9.58267 2.69502C9.49411 2.60646 9.44436 2.48635 9.44436 2.36111V0.472222Z" fill="white"/>
</svg>
