<svg width="23" height="22" viewBox="0 0 23 22" fill="none" xmlns="http://www.w3.org/2000/svg">
<path fill-rule="evenodd" clip-rule="evenodd" d="M17.9792 19.9809C18.8014 19.9809 19.5899 19.6781 20.1712 19.1391C20.7525 18.6 21.0791 17.8689 21.0791 17.1066C21.0791 16.3442 20.7525 15.6131 20.1712 15.074C19.5899 14.535 18.8014 14.2322 17.9792 14.2322C17.1571 14.2322 16.3686 14.535 15.7873 15.074C15.206 15.6131 14.8794 16.3442 14.8794 17.1066C14.8794 17.8689 15.206 18.6 15.7873 19.1391C16.3686 19.6781 17.1571 19.9809 17.9792 19.9809ZM17.9792 21.1307C19.1302 21.1307 20.2341 20.7067 21.048 19.9521C21.8619 19.1974 22.3191 18.1738 22.3191 17.1066C22.3191 16.0393 21.8619 15.0157 21.048 14.261C20.2341 13.5064 19.1302 13.0824 17.9792 13.0824C16.8283 13.0824 15.7244 13.5064 14.9105 14.261C14.0966 15.0157 13.6394 16.0393 13.6394 17.1066C13.6394 18.1738 14.0966 19.1974 14.9105 19.9521C15.7244 20.7067 16.8283 21.1307 17.9792 21.1307Z" fill="#83A131"/>
<path fill-rule="evenodd" clip-rule="evenodd" d="M17.9794 15.0943C18.1439 15.0943 18.3016 15.1549 18.4178 15.2627C18.5341 15.3705 18.5994 15.5167 18.5994 15.6692V16.8684L19.0377 17.2749C19.1507 17.3833 19.2132 17.5285 19.2117 17.6792C19.2103 17.83 19.1451 17.9741 19.0302 18.0807C18.9152 18.1873 18.7597 18.2478 18.5972 18.2491C18.4346 18.2504 18.278 18.1925 18.1611 18.0877L17.3595 17.3444V15.6692C17.3595 15.5167 17.4248 15.3705 17.541 15.2627C17.6573 15.1549 17.815 15.0943 17.9794 15.0943ZM4.95989 10.2079H3.71994V11.3576H4.95989V10.2079ZM3.71994 9.05811C3.39108 9.05811 3.07569 9.17924 2.84316 9.39486C2.61062 9.61048 2.47998 9.90293 2.47998 10.2079V11.3576C2.47998 11.6626 2.61062 11.955 2.84316 12.1706C3.07569 12.3862 3.39108 12.5074 3.71994 12.5074H4.95989C5.28875 12.5074 5.60414 12.3862 5.83667 12.1706C6.06921 11.955 6.19985 11.6626 6.19985 11.3576V10.2079C6.19985 9.90293 6.06921 9.61048 5.83667 9.39486C5.60414 9.17924 5.28875 9.05811 4.95989 9.05811H3.71994ZM9.91972 10.2079H8.67976V11.3576H9.91972V10.2079ZM8.67976 9.05811C8.3509 9.05811 8.03552 9.17924 7.80298 9.39486C7.57044 9.61048 7.4398 9.90293 7.4398 10.2079V11.3576C7.4398 11.6626 7.57044 11.955 7.80298 12.1706C8.03552 12.3862 8.3509 12.5074 8.67976 12.5074H9.91972C10.2486 12.5074 10.564 12.3862 10.7965 12.1706C11.029 11.955 11.1597 11.6626 11.1597 11.3576V10.2079C11.1597 9.90293 11.029 9.61048 10.7965 9.39486C10.564 9.17924 10.2486 9.05811 9.91972 9.05811H8.67976ZM14.8795 10.2079H13.6396V11.3576H14.8795V10.2079ZM13.6396 9.05811C13.3107 9.05811 12.9953 9.17924 12.7628 9.39486C12.5303 9.61048 12.3996 9.90293 12.3996 10.2079V11.3576C12.3996 11.6626 12.5303 11.955 12.7628 12.1706C12.9953 12.3862 13.3107 12.5074 13.6396 12.5074H14.8795C15.2084 12.5074 15.5238 12.3862 15.7563 12.1706C15.9889 11.955 16.1195 11.6626 16.1195 11.3576V10.2079C16.1195 9.90293 15.9889 9.61048 15.7563 9.39486C15.5238 9.17924 15.2084 9.05811 14.8795 9.05811H13.6396ZM4.95989 14.8069H3.71994V15.9567H4.95989V14.8069ZM3.71994 13.6571C3.39108 13.6571 3.07569 13.7783 2.84316 13.9939C2.61062 14.2095 2.47998 14.502 2.47998 14.8069V15.9567C2.47998 16.2616 2.61062 16.554 2.84316 16.7697C3.07569 16.9853 3.39108 17.1064 3.71994 17.1064H4.95989C5.28875 17.1064 5.60414 16.9853 5.83667 16.7697C6.06921 16.554 6.19985 16.2616 6.19985 15.9567V14.8069C6.19985 14.502 6.06921 14.2095 5.83667 13.9939C5.60414 13.7783 5.28875 13.6571 4.95989 13.6571H3.71994ZM9.91972 14.8069H8.67976V15.9567H9.91972V14.8069ZM8.67976 13.6571C8.3509 13.6571 8.03552 13.7783 7.80298 13.9939C7.57044 14.2095 7.4398 14.502 7.4398 14.8069V15.9567C7.4398 16.2616 7.57044 16.554 7.80298 16.7697C8.03552 16.9853 8.3509 17.1064 8.67976 17.1064H9.91972C10.2486 17.1064 10.564 16.9853 10.7965 16.7697C11.029 16.554 11.1597 16.2616 11.1597 15.9567V14.8069C11.1597 14.502 11.029 14.2095 10.7965 13.9939C10.564 13.7783 10.2486 13.6571 9.91972 13.6571H8.67976Z" fill="#83A131"/>
<path fill-rule="evenodd" clip-rule="evenodd" d="M1.23996 3.88379C1.23996 3.73132 1.30527 3.5851 1.42154 3.47729C1.53781 3.36948 1.69551 3.30891 1.85993 3.30891H4.95982V2.15915H1.85993C1.36665 2.15915 0.893567 2.34085 0.544762 2.66428C0.195957 2.98772 0 3.42638 0 3.88379V17.6809C0 18.1383 0.195957 18.577 0.544762 18.9004C0.893567 19.2238 1.36665 19.4055 1.85993 19.4055H14.4176C14.1532 19.0544 13.9512 18.6662 13.8193 18.2558H1.85993C1.69551 18.2558 1.53781 18.1952 1.42154 18.0874C1.30527 17.9796 1.23996 17.8334 1.23996 17.6809V3.88379ZM17.3594 13.1221C17.7706 13.0676 18.1881 13.0676 18.5993 13.1221V3.88379C18.5993 3.42638 18.4034 2.98772 18.0546 2.66428C17.7058 2.34085 17.2327 2.15915 16.7394 2.15915H14.8795V3.30891H16.7394C16.9038 3.30891 17.0615 3.36948 17.1778 3.47729C17.2941 3.5851 17.3594 3.73132 17.3594 3.88379V13.1221ZM6.19978 3.30891H12.7486V2.15915H6.19978V3.30891Z" fill="#83A131"/>
<path fill-rule="evenodd" clip-rule="evenodd" d="M13.6392 2.15915H6.19943V3.88379C6.19943 4.03625 6.13411 4.18248 6.01784 4.29029C5.90157 4.3981 5.74388 4.45867 5.57945 4.45867C5.41502 4.45867 5.25733 4.3981 5.14106 4.29029C5.02479 4.18248 4.95947 4.03625 4.95947 3.88379V2.15915H1.85958C1.53073 2.15915 1.21534 2.28028 0.982803 2.49591C0.750267 2.71153 0.619629 3.00397 0.619629 3.30891V6.1833C0.619629 6.48824 0.750267 6.78068 0.982803 6.99631C1.21534 7.21193 1.53073 7.33306 1.85958 7.33306H16.7391C17.0679 7.33306 17.3833 7.21193 17.6158 6.99631C17.8484 6.78068 17.979 6.48824 17.979 6.1833V3.30891C17.979 3.00397 17.8484 2.71153 17.6158 2.49591C17.3833 2.28028 17.0679 2.15915 16.7391 2.15915H14.8791V3.88379C14.8791 4.03625 14.8138 4.18248 14.6975 4.29029C14.5813 4.3981 14.4236 4.45867 14.2591 4.45867C14.0947 4.45867 13.937 4.3981 13.8208 4.29029C13.7045 4.18248 13.6392 4.03625 13.6392 3.88379V2.15915Z" fill="#83A131"/>
<path fill-rule="evenodd" clip-rule="evenodd" d="M18.5991 7.3332H1.23975V6.18344H18.5991V7.3332Z" fill="#83A131"/>
<path d="M3.71973 1.0096C3.71973 0.857135 3.78505 0.710912 3.90131 0.603101C4.01758 0.49529 4.17528 0.434723 4.3397 0.434723C4.50413 0.434723 4.66183 0.49529 4.7781 0.603101C4.89436 0.710912 4.95968 0.857135 4.95968 1.0096V3.30912C4.95968 3.46159 4.89436 3.60781 4.7781 3.71562C4.66183 3.82343 4.50413 3.884 4.3397 3.884C4.17528 3.884 4.01758 3.82343 3.90131 3.71562C3.78505 3.60781 3.71973 3.46159 3.71973 3.30912V1.0096ZM12.3994 1.0096C12.3994 0.857135 12.4647 0.710912 12.581 0.603101C12.6973 0.49529 12.855 0.434723 13.0194 0.434723C13.1838 0.434723 13.3415 0.49529 13.4578 0.603101C13.5741 0.710912 13.6394 0.857135 13.6394 1.0096V3.30912C13.6394 3.46159 13.5741 3.60781 13.4578 3.71562C13.3415 3.82343 13.1838 3.884 13.0194 3.884C12.855 3.884 12.6973 3.82343 12.581 3.71562C12.4647 3.60781 12.3994 3.46159 12.3994 3.30912V1.0096Z" fill="#83A131"/>
</svg>
