<svg width="19" height="17" viewBox="0 0 19 17" fill="none" xmlns="http://www.w3.org/2000/svg">
<path fill-rule="evenodd" clip-rule="evenodd" d="M15.3378 16.0558C16.0132 16.0558 16.6608 15.8071 17.1384 15.3643C17.6159 14.9215 17.8842 14.3209 17.8842 13.6947C17.8842 13.0685 17.6159 12.468 17.1384 12.0252C16.6608 11.5824 16.0132 11.3336 15.3378 11.3336C14.6625 11.3336 14.0148 11.5824 13.5373 12.0252C13.0598 12.468 12.7915 13.0685 12.7915 13.6947C12.7915 14.3209 13.0598 14.9215 13.5373 15.3643C14.0148 15.8071 14.6625 16.0558 15.3378 16.0558ZM15.3378 17.0003C16.2833 17.0003 17.19 16.652 17.8586 16.0321C18.5271 15.4122 18.9027 14.5714 18.9027 13.6947C18.9027 12.818 18.5271 11.9772 17.8586 11.3573C17.19 10.7374 16.2833 10.3892 15.3378 10.3892C14.3924 10.3892 13.4856 10.7374 12.8171 11.3573C12.1485 11.9772 11.7729 12.818 11.7729 13.6947C11.7729 14.5714 12.1485 15.4122 12.8171 16.0321C13.4856 16.652 14.3924 17.0003 15.3378 17.0003Z" fill="#83A131"/>
<path fill-rule="evenodd" clip-rule="evenodd" d="M15.3379 12.0418C15.473 12.0418 15.6025 12.0916 15.698 12.1801C15.7935 12.2687 15.8472 12.3888 15.8472 12.5141V13.4991L16.2072 13.833C16.3 13.922 16.3513 14.0413 16.3501 14.1651C16.349 14.2889 16.2954 14.4074 16.201 14.4949C16.1066 14.5825 15.9789 14.6322 15.8453 14.6332C15.7118 14.6343 15.5832 14.5867 15.4871 14.5007L14.8286 13.8901V12.5141C14.8286 12.3888 14.8823 12.2687 14.9778 12.1801C15.0733 12.0916 15.2028 12.0418 15.3379 12.0418ZM4.64327 8.02794H3.62474V8.97238H4.64327V8.02794ZM3.62474 7.0835C3.3546 7.0835 3.09554 7.183 2.90452 7.36012C2.71351 7.53724 2.6062 7.77746 2.6062 8.02794V8.97238C2.6062 9.22287 2.71351 9.46309 2.90452 9.64021C3.09554 9.81733 3.3546 9.91683 3.62474 9.91683H4.64327C4.9134 9.91683 5.17247 9.81733 5.36348 9.64021C5.5545 9.46309 5.66181 9.22287 5.66181 8.97238V8.02794C5.66181 7.77746 5.5545 7.53724 5.36348 7.36012C5.17247 7.183 4.9134 7.0835 4.64327 7.0835H3.62474ZM8.71741 8.02794H7.69888V8.97238H8.71741V8.02794ZM7.69888 7.0835C7.42874 7.0835 7.16968 7.183 6.97866 7.36012C6.78765 7.53724 6.68034 7.77746 6.68034 8.02794V8.97238C6.68034 9.22287 6.78765 9.46309 6.97866 9.64021C7.16968 9.81733 7.42874 9.91683 7.69888 9.91683H8.71741C8.98754 9.91683 9.24661 9.81733 9.43762 9.64021C9.62864 9.46309 9.73595 9.22287 9.73595 8.97238V8.02794C9.73595 7.77746 9.62864 7.53724 9.43762 7.36012C9.24661 7.183 8.98754 7.0835 8.71741 7.0835H7.69888ZM12.7916 8.02794H11.773V8.97238H12.7916V8.02794ZM11.773 7.0835C11.5029 7.0835 11.2438 7.183 11.0528 7.36012C10.8618 7.53724 10.7545 7.77746 10.7545 8.02794V8.97238C10.7545 9.22287 10.8618 9.46309 11.0528 9.64021C11.2438 9.81733 11.5029 9.91683 11.773 9.91683H12.7916C13.0617 9.91683 13.3208 9.81733 13.5118 9.64021C13.7028 9.46309 13.8101 9.22287 13.8101 8.97238V8.02794C13.8101 7.77746 13.7028 7.53724 13.5118 7.36012C13.3208 7.183 13.0617 7.0835 12.7916 7.0835H11.773ZM4.64327 11.8057H3.62474V12.7502H4.64327V11.8057ZM3.62474 10.8613C3.3546 10.8613 3.09554 10.9608 2.90452 11.1379C2.71351 11.315 2.6062 11.5552 2.6062 11.8057V12.7502C2.6062 13.0006 2.71351 13.2409 2.90452 13.418C3.09554 13.5951 3.3546 13.6946 3.62474 13.6946H4.64327C4.9134 13.6946 5.17247 13.5951 5.36348 13.418C5.5545 13.2409 5.66181 13.0006 5.66181 12.7502V11.8057C5.66181 11.5552 5.5545 11.315 5.36348 11.1379C5.17247 10.9608 4.9134 10.8613 4.64327 10.8613H3.62474ZM8.71741 11.8057H7.69888V12.7502H8.71741V11.8057ZM7.69888 10.8613C7.42874 10.8613 7.16968 10.9608 6.97866 11.1379C6.78765 11.315 6.68034 11.5552 6.68034 11.8057V12.7502C6.68034 13.0006 6.78765 13.2409 6.97866 13.418C7.16968 13.5951 7.42874 13.6946 7.69888 13.6946H8.71741C8.98754 13.6946 9.24661 13.5951 9.43762 13.418C9.62864 13.2409 9.73595 13.0006 9.73595 12.7502V11.8057C9.73595 11.5552 9.62864 11.315 9.43762 11.1379C9.24661 10.9608 8.98754 10.8613 8.71741 10.8613H7.69888Z" fill="#83A131"/>
<path fill-rule="evenodd" clip-rule="evenodd" d="M1.58763 2.83317C1.58763 2.70793 1.64128 2.58782 1.73679 2.49926C1.83229 2.4107 1.96183 2.36095 2.09689 2.36095H4.64323V1.4165H2.09689C1.6917 1.4165 1.30309 1.56576 1.01657 1.83144C0.730056 2.09711 0.569092 2.45745 0.569092 2.83317V14.1665C0.569092 14.5422 0.730056 14.9026 1.01657 15.1682C1.30309 15.4339 1.6917 15.5832 2.09689 15.5832H12.4121C12.1949 15.2947 12.029 14.9759 11.9207 14.6387H2.09689C1.96183 14.6387 1.83229 14.589 1.73679 14.5004C1.64128 14.4119 1.58763 14.2917 1.58763 14.1665V2.83317ZM14.8286 10.4218C15.1664 10.377 15.5093 10.377 15.8471 10.4218V2.83317C15.8471 2.45745 15.6862 2.09711 15.3996 1.83144C15.1131 1.56576 14.7245 1.4165 14.3193 1.4165H12.7915V2.36095H14.3193C14.4544 2.36095 14.5839 2.4107 14.6794 2.49926C14.7749 2.58782 14.8286 2.70793 14.8286 2.83317V10.4218ZM5.66177 2.36095H11.0412V1.4165H5.66177V2.36095Z" fill="#83A131"/>
<path fill-rule="evenodd" clip-rule="evenodd" d="M11.7727 1.4165H5.66153V2.83317C5.66153 2.95841 5.60788 3.07852 5.51237 3.16708C5.41687 3.25564 5.28733 3.30539 5.15227 3.30539C5.0172 3.30539 4.88767 3.25564 4.79216 3.16708C4.69665 3.07852 4.643 2.95841 4.643 2.83317V1.4165H2.09666C1.82653 1.4165 1.56746 1.51601 1.37645 1.69313C1.18543 1.87024 1.07813 2.11047 1.07812 2.36095V4.72206C1.07813 4.97254 1.18543 5.21276 1.37645 5.38988C1.56746 5.567 1.82653 5.6665 2.09666 5.6665H14.3191C14.5892 5.6665 14.8483 5.567 15.0393 5.38988C15.2303 5.21276 15.3376 4.97254 15.3376 4.72206V2.36095C15.3376 2.11047 15.2303 1.87024 15.0393 1.69313C14.8483 1.51601 14.5892 1.4165 14.3191 1.4165H12.7913V2.83317C12.7913 2.95841 12.7376 3.07852 12.6421 3.16708C12.5466 3.25564 12.4171 3.30539 12.282 3.30539C12.1469 3.30539 12.0174 3.25564 11.9219 3.16708C11.8264 3.07852 11.7727 2.95841 11.7727 2.83317V1.4165Z" fill="#83A131"/>
<path fill-rule="evenodd" clip-rule="evenodd" d="M15.8469 5.66661H1.5874V4.72217H15.8469V5.66661Z" fill="#83A131"/>
<path d="M3.62451 0.472222C3.62451 0.346981 3.67817 0.22687 3.77367 0.138311C3.86918 0.0497519 3.99871 0 4.13378 0C4.26885 0 4.39838 0.0497519 4.49389 0.138311C4.58939 0.22687 4.64305 0.346981 4.64305 0.472222V2.36111C4.64305 2.48635 4.58939 2.60646 4.49389 2.69502C4.39838 2.78358 4.26885 2.83333 4.13378 2.83333C3.99871 2.83333 3.86918 2.78358 3.77367 2.69502C3.67817 2.60646 3.62451 2.48635 3.62451 2.36111V0.472222ZM10.7543 0.472222C10.7543 0.346981 10.8079 0.22687 10.9034 0.138311C10.9989 0.0497519 11.1285 0 11.2635 0C11.3986 0 11.5281 0.0497519 11.6236 0.138311C11.7191 0.22687 11.7728 0.346981 11.7728 0.472222V2.36111C11.7728 2.48635 11.7191 2.60646 11.6236 2.69502C11.5281 2.78358 11.3986 2.83333 11.2635 2.83333C11.1285 2.83333 10.9989 2.78358 10.9034 2.69502C10.8079 2.60646 10.7543 2.48635 10.7543 2.36111V0.472222Z" fill="#83A131"/>
</svg>
