<svg width="22" height="18" viewBox="0 0 22 18" fill="none" xmlns="http://www.w3.org/2000/svg">
<path d="M21.5501 6.66302H15.2188C15.11 6.66302 15.0209 6.74613 15.0209 6.84771V7.95583C15.0209 8.05741 15.11 8.14052 15.2188 8.14052H21.5501C21.6589 8.14052 21.7479 8.05741 21.7479 7.95583V6.84771C21.7479 6.74613 21.6589 6.66302 21.5501 6.66302ZM18.236 9.8027H15.2188C15.11 9.8027 15.0209 9.88581 15.0209 9.98739V11.0955C15.0209 11.1971 15.11 11.2802 15.2188 11.2802H18.236C18.3448 11.2802 18.4339 11.1971 18.4339 11.0955V9.98739C18.4339 9.88581 18.3448 9.8027 18.236 9.8027ZM9.98312 4.59683H8.91225C8.75891 4.59683 8.63525 4.71226 8.63525 4.85539V10.5807C8.63525 10.6638 8.6773 10.74 8.74902 10.7885L12.4315 13.2956C12.5552 13.3787 12.7283 13.3556 12.8174 13.2402L13.453 12.4299V12.4276C13.542 12.3121 13.5148 12.1505 13.3911 12.0674L10.2576 9.95276V4.85539C10.2601 4.71226 10.134 4.59683 9.98312 4.59683Z" fill="#83A131"/>
<path d="M18.1614 12.6849H16.7289C16.5901 12.6849 16.4588 12.7514 16.3844 12.8616C16.0697 13.3228 15.7029 13.7495 15.2816 14.1396C14.5554 14.8119 13.7103 15.3396 12.771 15.7068C11.797 16.0877 10.7635 16.2804 9.69783 16.2804C8.62966 16.2804 7.59618 16.0877 6.62467 15.7068C5.68537 15.3396 4.84025 14.8119 4.11409 14.1396C3.38793 13.4673 2.81791 12.6849 2.42137 11.8152C2.00996 10.9158 1.80178 9.95897 1.80178 8.97003C1.80178 7.98108 2.00996 7.02656 2.42137 6.12481C2.81791 5.25518 3.38793 4.47274 4.11409 3.80045C4.84025 3.12815 5.68537 2.6004 6.62467 2.23328C7.59618 1.85239 8.63214 1.65965 9.69783 1.65965C10.766 1.65965 11.7995 1.85239 12.771 2.23328C13.7103 2.6004 14.5554 3.12815 15.2816 3.80045C15.7029 4.19052 16.0697 4.6173 16.3844 5.0785C16.4588 5.18864 16.5901 5.25518 16.7289 5.25518H18.1614C18.3324 5.25518 18.4415 5.08997 18.3646 4.95001C16.7488 1.974 13.4724 0.0397069 9.81431 0.000699893C4.45858 -0.0612525 0.00993036 3.99778 1.69317e-05 8.95167C-0.0098965 13.9147 4.33466 17.9416 9.69535 17.9416C13.4005 17.9416 16.7314 16.0005 18.3646 12.99C18.4415 12.8501 18.3299 12.6849 18.1614 12.6849Z" fill="#83A131"/>
</svg>
