<svg width="19" height="16" viewBox="0 0 19 16" fill="none" xmlns="http://www.w3.org/2000/svg">
<path d="M18.3493 6.19332H13.1486C13.0592 6.19332 12.9861 6.26159 12.9861 6.34503V7.25527C12.9861 7.33871 13.0592 7.40698 13.1486 7.40698H18.3493C18.4387 7.40698 18.5118 7.33871 18.5118 7.25527V6.34503C18.5118 6.26159 18.4387 6.19332 18.3493 6.19332ZM15.6271 8.77234H13.1486C13.0592 8.77234 12.9861 8.84061 12.9861 8.92405V9.83429C12.9861 9.91773 13.0592 9.986 13.1486 9.986H15.6271C15.7165 9.986 15.7896 9.91773 15.7896 9.83429V8.92405C15.7896 8.84061 15.7165 8.77234 15.6271 8.77234ZM8.8479 4.49609H7.96825C7.8423 4.49609 7.74072 4.59091 7.74072 4.70848V9.41141C7.74072 9.47968 7.77526 9.54226 7.83417 9.58208L10.8591 11.6415C10.9607 11.7098 11.1029 11.6908 11.176 11.596L11.6981 10.9304V10.9285C11.7713 10.8337 11.7489 10.7009 11.6473 10.6327L9.0734 8.8956V4.70848C9.07543 4.59091 8.97182 4.49609 8.8479 4.49609Z" fill="#83A131"/>
<path d="M15.5658 11.1399H14.3891C14.2751 11.1399 14.1672 11.1946 14.1061 11.2851C13.8476 11.6639 13.5463 12.0145 13.2002 12.3349C12.6037 12.8871 11.9095 13.3206 11.1379 13.6222C10.3379 13.9351 9.48893 14.0934 8.61354 14.0934C7.73611 14.0934 6.88718 13.9351 6.08915 13.6222C5.31759 13.3206 4.62338 12.8871 4.02689 12.3349C3.43041 11.7826 2.96217 11.1399 2.63645 10.4256C2.2985 9.68676 2.1275 8.9008 2.1275 8.08845C2.1275 7.2761 2.2985 6.49203 2.63645 5.75131C2.96217 5.03697 3.43041 4.39425 4.02689 3.84201C4.62338 3.28976 5.31759 2.85626 6.08915 2.55469C6.88718 2.24182 7.73814 2.0835 8.61354 2.0835C9.49096 2.0835 10.3399 2.24182 11.1379 2.55469C11.9095 2.85626 12.6037 3.28976 13.2002 3.84201C13.5463 4.16242 13.8476 4.513 14.1061 4.89184C14.1672 4.98231 14.2751 5.03697 14.3891 5.03697H15.5658C15.7062 5.03697 15.7958 4.90126 15.7327 4.78629C14.4054 2.34171 11.7141 0.752831 8.70922 0.72079C4.30987 0.6699 0.655618 4.0041 0.647475 8.07337C0.639332 12.1502 4.20808 15.458 8.6115 15.458C11.655 15.458 14.3911 13.8635 15.7327 11.3906C15.7958 11.2756 15.7042 11.1399 15.5658 11.1399Z" fill="#83A131"/>
</svg>
