<svg width="16" height="17" viewBox="0 0 16 17" fill="none" xmlns="http://www.w3.org/2000/svg">
<path d="M8.01811 8.92232C9.305 8.92232 10.3482 7.95497 10.3482 6.7617C10.3482 5.56842 9.305 4.60107 8.01811 4.60107C6.73122 4.60107 5.68799 5.56842 5.68799 6.7617C5.68799 7.95497 6.73122 8.92232 8.01811 8.92232Z" stroke="#83A131" stroke-width="2" stroke-linecap="round" stroke-linejoin="round"/>
<path d="M8.0181 1C6.37013 1 4.78967 1.60703 3.62438 2.68755C2.45909 3.76807 1.80444 5.23357 1.80444 6.76166C1.80444 8.12429 2.11668 9.01591 2.9695 10.0026L8.0181 15.4041L13.0667 10.0026C13.9195 9.01591 14.2318 8.12429 14.2318 6.76166C14.2318 5.23357 13.5771 3.76807 12.4118 2.68755C11.2465 1.60703 9.66606 1 8.0181 1V1Z" stroke="#83A131" stroke-width="2" stroke-linecap="round" stroke-linejoin="round"/>
</svg>
